<?xml version="1.0" encoding="UTF-8"?><svg id="Calque_1" xmlns="http://www.w3.org/2000/svg" viewBox="0 0 455.4 131.92"><defs><style>.cls-1{fill:#fb0;}</style></defs><g><path d="M178.7,89.51l-17.22-19.9v19.9h-7.3V45.03h7.3v20.29l17.28-20.29h9.15l-19.33,22.27,19.65,22.21h-9.54Z"/><path d="M200.01,88.39c-2.39-1.04-4.27-2.53-5.63-4.45-1.37-1.92-2.05-4.16-2.05-6.72h7.81c.17,1.92,.93,3.5,2.27,4.74,1.34,1.24,3.23,1.86,5.66,1.86s4.48-.61,5.89-1.82,2.11-2.78,2.11-4.7c0-1.49-.44-2.71-1.31-3.65-.88-.94-1.96-1.66-3.26-2.18-1.3-.51-3.1-1.07-5.41-1.66-2.9-.77-5.26-1.55-7.07-2.34-1.81-.79-3.36-2.02-4.64-3.68-1.28-1.66-1.92-3.88-1.92-6.66,0-2.56,.64-4.8,1.92-6.72,1.28-1.92,3.07-3.39,5.38-4.42,2.3-1.02,4.97-1.54,8-1.54,4.31,0,7.84,1.08,10.59,3.23,2.75,2.16,4.28,5.11,4.58,8.86h-8.06c-.13-1.62-.9-3.01-2.3-4.16-1.41-1.15-3.26-1.73-5.57-1.73-2.09,0-3.8,.53-5.12,1.6-1.32,1.07-1.98,2.6-1.98,4.61,0,1.37,.42,2.49,1.25,3.36,.83,.88,1.89,1.57,3.17,2.08,1.28,.51,3.03,1.07,5.25,1.66,2.94,.81,5.34,1.62,7.2,2.43,1.86,.81,3.43,2.06,4.74,3.74,1.3,1.69,1.95,3.94,1.95,6.75,0,2.26-.61,4.4-1.82,6.4-1.22,2.01-2.99,3.62-5.31,4.83-2.33,1.22-5.07,1.82-8.22,1.82-2.99,0-5.67-.52-8.06-1.57Z"/><path d="M269.26,89.51l-10.24-17.79h-5.57v17.79h-7.3V45.03h15.36c3.41,0,6.3,.6,8.67,1.79,2.37,1.2,4.14,2.79,5.31,4.8,1.17,2.01,1.76,4.25,1.76,6.72,0,2.9-.84,5.54-2.53,7.9-1.69,2.37-4.28,3.98-7.78,4.83l11.01,18.43h-8.7Zm-15.81-23.62h8.06c2.73,0,4.79-.68,6.18-2.05,1.39-1.36,2.08-3.2,2.08-5.5s-.68-4.11-2.05-5.41c-1.37-1.3-3.44-1.95-6.21-1.95h-8.06v14.91Z"/><path d="M292.61,50.91v13.06h15.36v5.95h-15.36v13.63h17.28v5.95h-24.58V44.96h24.58v5.95h-17.28Z"/><path d="M354.12,89.51h-7.3l-21.95-33.22v33.22h-7.3V44.96h7.3l21.95,33.15V44.96h7.3v44.54Z"/><path d="M371.3,87.04c-3.48-1.94-6.23-4.65-8.26-8.13-2.03-3.48-3.04-7.39-3.04-11.74s1.01-8.26,3.04-11.71c2.03-3.46,4.78-6.15,8.26-8.1,3.48-1.94,7.29-2.91,11.42-2.91s8.01,.97,11.49,2.91c3.48,1.94,6.22,4.64,8.22,8.1,2,3.46,3.01,7.36,3.01,11.71s-1,8.27-3.01,11.74c-2.01,3.48-4.75,6.19-8.22,8.13-3.48,1.94-7.31,2.91-11.49,2.91s-7.95-.97-11.42-2.91Zm19.3-5.44c2.3-1.34,4.11-3.26,5.41-5.76,1.3-2.5,1.95-5.39,1.95-8.67s-.65-6.17-1.95-8.64c-1.3-2.47-3.1-4.37-5.41-5.7-2.3-1.32-4.93-1.98-7.87-1.98s-5.57,.66-7.87,1.98c-2.3,1.32-4.11,3.22-5.41,5.7-1.3,2.48-1.95,5.35-1.95,8.64s.65,6.18,1.95,8.67c1.3,2.5,3.1,4.42,5.41,5.76s4.93,2.02,7.87,2.02,5.57-.67,7.87-2.02Z"/><path d="M449.67,45.03l-16.7,44.48h-8.45l-16.77-44.48h7.81l13.18,36.99,13.25-36.99h7.68Z"/></g><g><polygon class="cls-1" points="60.76 .29 .17 35.27 .17 61.97 .17 61.97 .17 62.41 23.71 76.23 23.71 48.8 60.76 27.42 121.16 62.29 121.16 35.16 60.76 .29"/><polygon class="cls-1" points="60.57 131.67 121.16 96.69 121.16 70 121.16 69.99 121.16 69.56 97.62 55.73 97.62 83.16 60.57 104.55 .17 69.67 .17 96.8 60.57 131.67"/></g></svg>