<?xml version="1.0" encoding="utf-8"?>
<!-- Generator: Adobe Illustrator 25.2.1, SVG Export Plug-In . SVG Version: 6.00 Build 0)  -->
<svg version="1.1" id="Calque_1" xmlns="http://www.w3.org/2000/svg" xmlns:xlink="http://www.w3.org/1999/xlink" x="0px" y="0px"
	 viewBox="0 0 398 161" style="enable-background:new 0 0 398 161;" xml:space="preserve">
<style type="text/css">
	.st0{enable-background:new    ;}
	.st1{fill:#FFFFFF;}
</style>
<g class="st0">
	<path d="M199,72.7c2,1.1,3.6,2.8,4.7,5c1.1,2.2,1.7,4.9,1.7,8v20.2h-8.7v-19c0-2.7-0.7-4.8-2-6.3c-1.4-1.5-3.2-2.2-5.6-2.2
		c-2.4,0-4.3,0.7-5.7,2.2c-1.4,1.5-2.1,3.6-2.1,6.3v19h-8.7V60h8.7v15.8c1.1-1.5,2.6-2.7,4.5-3.5c1.9-0.8,3.9-1.3,6.2-1.3
		C194.7,71,197,71.6,199,72.7z"/>
	<path d="M218.2,104.2c-2.6-1.5-4.7-3.5-6.2-6.2c-1.5-2.7-2.3-5.8-2.3-9.3c0-3.5,0.8-6.6,2.3-9.3c1.5-2.7,3.7-4.8,6.4-6.2
		c2.7-1.5,5.7-2.2,9-2.2c3.3,0,6.3,0.7,9,2.2c2.7,1.5,4.8,3.5,6.4,6.2c1.5,2.7,2.3,5.8,2.3,9.3c0,3.5-0.8,6.6-2.4,9.3
		c-1.6,2.7-3.7,4.8-6.4,6.2c-2.7,1.5-5.7,2.2-9.1,2.2C223.8,106.4,220.8,105.7,218.2,104.2z M231.5,97.7c1.4-0.8,2.5-1.9,3.3-3.4
		c0.8-1.5,1.2-3.4,1.2-5.6c0-3.3-0.9-5.8-2.6-7.5c-1.7-1.8-3.8-2.6-6.3-2.6c-2.5,0-4.6,0.9-6.2,2.6c-1.7,1.8-2.5,4.3-2.5,7.5
		c0,3.3,0.8,5.8,2.4,7.5c1.6,1.8,3.7,2.6,6.2,2.6C228.7,98.9,230.1,98.5,231.5,97.7z"/>
	<path d="M258.2,60v45.9h-8.7V60H258.2z"/>
	<path d="M264.8,79.3c1.4-2.7,3.3-4.8,5.7-6.2c2.4-1.4,5.1-2.2,8-2.2c2.2,0,4.4,0.5,6.4,1.5c2,1,3.6,2.3,4.8,3.9V60h8.8v45.9h-8.8
		v-5.1c-1.1,1.7-2.6,3.1-4.5,4.1c-1.9,1-4.2,1.5-6.8,1.5c-2.9,0-5.5-0.7-7.9-2.2s-4.3-3.6-5.7-6.3s-2.1-5.8-2.1-9.3
		C262.7,85.1,263.4,82,264.8,79.3z M288.5,83.3c-0.8-1.5-1.9-2.7-3.3-3.5c-1.4-0.8-2.9-1.2-4.5-1.2c-1.6,0-3.1,0.4-4.5,1.2
		c-1.4,0.8-2.5,1.9-3.3,3.4c-0.8,1.5-1.3,3.3-1.3,5.4c0,2.1,0.4,3.9,1.3,5.4c0.8,1.5,2,2.7,3.3,3.6c1.4,0.8,2.9,1.2,4.4,1.2
		c1.6,0,3.1-0.4,4.5-1.2c1.4-0.8,2.5-2,3.3-3.5c0.8-1.5,1.2-3.3,1.2-5.4C289.7,86.6,289.3,84.8,288.5,83.3z"/>
	<path d="M305.7,66c-1-1-1.5-2.2-1.5-3.6c0-1.4,0.5-2.7,1.5-3.6c1-1,2.3-1.5,3.8-1.5c1.5,0,2.8,0.5,3.8,1.5c1,1,1.5,2.2,1.5,3.6
		c0,1.4-0.5,2.7-1.5,3.6c-1,1-2.3,1.5-3.8,1.5C308,67.4,306.7,66.9,305.7,66z M313.8,71.5v34.3h-8.7V71.5H313.8z"/>
	<path d="M349.4,74.9c2.5,2.6,3.8,6.2,3.8,10.8v20.2h-8.7v-19c0-2.7-0.7-4.8-2-6.3c-1.4-1.5-3.2-2.2-5.6-2.2c-2.4,0-4.3,0.7-5.7,2.2
		c-1.4,1.5-2.1,3.6-2.1,6.3v19h-8.7V71.5h8.7v4.3c1.2-1.5,2.6-2.7,4.4-3.5c1.8-0.8,3.8-1.3,5.9-1.3C343.6,71,346.9,72.3,349.4,74.9z
		"/>
	<path d="M379.8,72.5c1.9,1,3.5,2.3,4.6,3.9v-4.9h8.7v34.6c0,3.2-0.6,6-1.9,8.5c-1.3,2.5-3.2,4.5-5.8,6c-2.6,1.5-5.7,2.2-9.3,2.2
		c-4.9,0-8.9-1.1-12-3.4c-3.1-2.3-4.9-5.4-5.3-9.3h8.6c0.5,1.6,1.4,2.8,2.9,3.8c1.5,0.9,3.3,1.4,5.5,1.4c2.5,0,4.6-0.8,6.1-2.3
		c1.6-1.5,2.4-3.8,2.4-6.9v-5.3c-1.1,1.6-2.7,3-4.6,4c-2,1.1-4.2,1.6-6.7,1.6c-2.9,0-5.5-0.7-7.9-2.2c-2.4-1.5-4.3-3.6-5.7-6.3
		c-1.4-2.7-2.1-5.8-2.1-9.3c0-3.5,0.7-6.6,2.1-9.2c1.4-2.7,3.3-4.8,5.6-6.2c2.4-1.4,5-2.2,8-2.2C375.6,71,377.9,71.5,379.8,72.5z
		 M383.2,83.3c-0.8-1.5-1.9-2.7-3.3-3.5c-1.4-0.8-2.9-1.2-4.5-1.2s-3.1,0.4-4.5,1.2c-1.4,0.8-2.5,1.9-3.3,3.4
		c-0.8,1.5-1.3,3.3-1.3,5.4c0,2.1,0.4,3.9,1.3,5.4c0.8,1.5,2,2.7,3.3,3.6s2.9,1.2,4.4,1.2c1.6,0,3.1-0.4,4.5-1.2
		c1.4-0.8,2.5-2,3.3-3.5c0.8-1.5,1.2-3.3,1.2-5.4C384.4,86.6,384,84.8,383.2,83.3z"/>
</g>
<circle cx="82.3" cy="80.7" r="79.1"/>
<g class="st0">
	<path class="st1" d="M68.6,105.7L47.7,80.2v25.5H36.3V48.5h11.5v25.7l20.8-25.7h13.9L58.8,76.9l24.3,28.9H68.6z"/>
	<path class="st1" d="M100.4,104.3c-3.2-1.4-5.7-3.3-7.6-5.9C91,95.8,90,92.8,90,89.3h12.3c0.2,2.4,1,4.2,2.5,5.6
		c1.5,1.4,3.6,2,6.2,2c2.7,0,4.8-0.6,6.3-1.9c1.5-1.3,2.3-3,2.3-5c0-1.7-0.5-3.1-1.6-4.2c-1-1.1-2.3-2-3.9-2.6
		c-1.6-0.6-3.7-1.3-6.4-2.1c-3.7-1.1-6.7-2.2-9.1-3.2c-2.3-1.1-4.3-2.7-6-4.8c-1.7-2.2-2.5-5-2.5-8.7c0-3.4,0.8-6.3,2.5-8.9
		c1.7-2.5,4.1-4.4,7.1-5.8c3.1-1.3,6.6-2,10.5-2c5.9,0,10.7,1.4,14.4,4.3s5.7,6.9,6.1,12h-12.6c-0.1-2-0.9-3.6-2.5-4.9
		c-1.6-1.3-3.6-1.9-6.2-1.9c-2.2,0-4,0.6-5.4,1.7c-1.3,1.1-2,2.8-2,5c0,1.5,0.5,2.8,1.5,3.8c1,1,2.3,1.8,3.8,2.5
		c1.5,0.6,3.6,1.4,6.4,2.2c3.7,1.1,6.8,2.2,9.1,3.3c2.3,1.1,4.4,2.7,6.1,4.9c1.7,2.2,2.5,5.1,2.5,8.6c0,3.1-0.8,5.9-2.4,8.5
		c-1.6,2.6-3.9,4.7-7,6.3c-3.1,1.6-6.7,2.3-10.9,2.3C107.2,106.3,103.6,105.6,100.4,104.3z"/>
</g>
</svg>
